<svg xmlns:mydata="http://www.w3.org/2000/svg" mydata:contrastcolor="ffffff" mydata:template="Default" mydata:presentation="2.5" mydata:layouttype="undefined" mydata:specialfontid="undefined" mydata:id1="809" mydata:id2="090" mydata:companyname="kanaksan" mydata:companytagline="lets connected" version="1.1" xmlns="http://www.w3.org/2000/svg" xmlns:xlink="http://www.w3.org/1999/xlink" viewBox="0 0 550 470"><g fill="none" fill-rule="none" stroke="none" stroke-width="1" stroke-linecap="butt" stroke-linejoin="miter" stroke-miterlimit="10" stroke-dasharray="" stroke-dashoffset="0" font-family="none" font-weight="none" font-size="none" text-anchor="none" style="mix-blend-mode: normal"><g data-paper-data="{&quot;isGlobalGroup&quot;:true}"><g data-paper-data="{&quot;isSecondaryText&quot;:true}" fill="#ffc600" fill-rule="nonzero"><path d="M159.64989,354.71462v-16.91115h2.18788v14.7127h6.04573v2.19845z" data-paper-data="{&quot;glyphName&quot;:&quot;L&quot;,&quot;glyphIndex&quot;:0,&quot;firstGlyphOfWord&quot;:true,&quot;word&quot;:1}"></path><path d="M178.29246,352.25194c0.36641,0.32413 1.03228,0.4862 1.99763,0.4862c1.04285,0 1.93421,-0.36641 2.67407,-1.09922c0.0916,-0.09865 0.27833,-0.31708 0.56018,-0.65531l2.18788,0.78214c-0.53552,0.73986 -0.92307,1.22958 -1.16264,1.46916c-1.17673,1.17673 -2.59657,1.7651 -4.25949,1.7651c-1.65588,0 -3.07219,-0.58837 -4.24893,-1.7651c-1.17673,-1.17673 -1.7651,-2.59657 -1.7651,-4.25949c0,-1.66293 0.58837,-3.08276 1.7651,-4.25949c1.17673,-1.17673 2.59304,-1.7651 4.24893,-1.7651c1.42335,0 2.67055,0.42982 3.74159,1.28947c0.17616,0.14797 0.34879,0.30651 0.5179,0.47563c0.07046,0.07046 0.27128,0.29242 0.60246,0.66588l-1.09922,1.10979zM181.9495,345.48748c-0.24662,-0.19025 -0.79976,-0.28538 -1.65941,-0.28538c-1.03581,0 -1.92188,0.36817 -2.65822,1.10451c-0.73634,0.73634 -1.10451,1.62594 -1.10451,2.66879c0,0.8526 0.09513,1.40574 0.28538,1.65941z" data-paper-data="{&quot;glyphName&quot;:&quot;e&quot;,&quot;glyphIndex&quot;:1,&quot;word&quot;:1}"></path><path d="M194.70936,343.83864v-4.07981h2.18788v4.07981h1.95535v2.18788h-1.95535v8.6881h-2.18788v-8.6881h-1.95535v-2.18788z" data-paper-data="{&quot;glyphName&quot;:&quot;t&quot;,&quot;glyphIndex&quot;:2,&quot;word&quot;:1}"></path><path d="M208.36292,351.69176c0.06342,0.32413 0.16207,0.55314 0.29595,0.68702c0.26071,0.25367 0.57075,0.3805 0.93011,0.3805c0.35936,0 0.66764,-0.12683 0.92483,-0.3805c0.25719,-0.25367 0.38579,-0.56723 0.38579,-0.94068c0,-0.35936 -0.12683,-0.66588 -0.3805,-0.91954c-0.17616,-0.17616 -0.55314,-0.44744 -1.13093,-0.81385c-0.78919,-0.42982 -1.34937,-0.81033 -1.68055,-1.1415c-0.5778,-0.5778 -0.8667,-1.27186 -0.8667,-2.08218c0,-0.81737 0.2889,-1.51672 0.8667,-2.09804c0.5778,-0.58132 1.27538,-0.87198 2.09275,-0.87198c0.81737,0 1.49734,0.27481 2.03991,0.82442c0.38755,0.38755 0.63417,0.8209 0.73986,1.30004l-2.12446,0.61303c-0.04932,-0.17616 -0.09865,-0.29242 -0.14797,-0.34879c-0.12683,-0.12683 -0.29595,-0.19025 -0.50733,-0.19025c-0.21139,0 -0.39283,0.07575 -0.54433,0.22724c-0.1515,0.1515 -0.22724,0.33294 -0.22724,0.54433c0,0.21139 0.07399,0.39107 0.22196,0.53904c0.13388,0.12683 0.43687,0.34175 0.90897,0.64474c0.87374,0.47915 1.50791,0.91602 1.9025,1.31061c0.68349,0.69054 1.02524,1.51143 1.02524,2.46269c0,0.97239 -0.33998,1.80209 -1.01995,2.48911c-0.67997,0.68702 -1.50615,1.03052 -2.47854,1.03052c-0.96534,0 -1.78976,-0.34527 -2.47326,-1.03581c-0.4721,-0.4721 -0.78214,-1.06047 -0.93011,-1.7651z" data-paper-data="{&quot;glyphName&quot;:&quot;s&quot;,&quot;glyphIndex&quot;:3,&quot;lastGlyphOfWord&quot;:true,&quot;word&quot;:1}"></path><path d="M246.60947,350.68766l1.63827,1.46916c-2.00115,1.82499 -4.11857,2.73749 -6.35225,2.73749c-2.3887,0 -4.42508,-0.84203 -6.10915,-2.5261c-1.68407,-1.68407 -2.5261,-3.72045 -2.5261,-6.10915c0,-2.38165 0.84203,-4.41804 2.5261,-6.10915c1.68407,-1.69111 3.72045,-2.53667 6.10915,-2.53667c2.23368,0 4.3511,0.9125 6.35225,2.73749l-1.63827,1.49029c-1.50791,-1.3388 -3.07924,-2.0082 -4.71398,-2.0082c-1.76862,0 -3.28182,0.62712 -4.53959,1.88137c-1.25777,1.25424 -1.88665,2.7692 -1.88665,4.54487c0,1.78272 0.62888,3.3012 1.88665,4.55544c1.25777,1.25424 2.77096,1.88137 4.53959,1.88137c1.63474,0 3.20607,-0.6694 4.71398,-2.0082z" data-paper-data="{&quot;glyphName&quot;:&quot;C&quot;,&quot;glyphIndex&quot;:4,&quot;firstGlyphOfWord&quot;:true,&quot;word&quot;:2}"></path><path d="M261.59924,342.95081c1.66293,0 3.081,0.58837 4.25421,1.7651c1.17321,1.17673 1.75982,2.59657 1.75982,4.25949c0,1.66293 -0.58661,3.08276 -1.75982,4.25949c-1.17321,1.17673 -2.59128,1.7651 -4.25421,1.7651c-1.65588,0 -3.07219,-0.58837 -4.24893,-1.7651c-1.17673,-1.17673 -1.7651,-2.59657 -1.7651,-4.25949c0,-1.66293 0.58837,-3.08276 1.7651,-4.25949c1.17673,-1.17673 2.59304,-1.7651 4.24893,-1.7651zM261.59924,345.2021c-1.04285,0 -1.93245,0.36993 -2.66879,1.10979c-0.73634,0.73986 -1.10451,1.6277 -1.10451,2.66351c0,1.04285 0.36817,1.93069 1.10451,2.66351c0.73634,0.73282 1.62594,1.09922 2.66879,1.09922c1.04285,0 1.93245,-0.36641 2.66879,-1.09922c0.73634,-0.73282 1.10451,-1.62065 1.10451,-2.66351c0,-1.03581 -0.36817,-1.92364 -1.10451,-2.66351c-0.73634,-0.73986 -1.62594,-1.10979 -2.66879,-1.10979z" data-paper-data="{&quot;glyphName&quot;:&quot;o&quot;,&quot;glyphIndex&quot;:5,&quot;word&quot;:2}"></path><path d="M277.58302,346.75582v7.95881h-2.19845v-10.87598h2.19845v1.26834c0.45801,-1.24015 1.37755,-1.86023 2.75863,-1.86023c1.17673,0 2.11213,0.41749 2.80619,1.25248c0.69406,0.83499 1.05166,1.88313 1.0728,3.14442v7.07097h-2.18788v-6.98642c0,-0.62712 -0.22901,-1.1644 -0.68702,-1.61184c-0.45801,-0.44744 -1.0041,-0.67116 -1.63827,-0.67116c-0.62712,0 -1.16969,0.21844 -1.6277,0.65531c-0.25367,0.26071 -0.41926,0.47915 -0.49676,0.65531z" data-paper-data="{&quot;glyphName&quot;:&quot;n&quot;,&quot;glyphIndex&quot;:6,&quot;word&quot;:2}"></path><path d="M294.8177,346.75582v7.95881h-2.19845v-10.87598h2.19845v1.26834c0.45801,-1.24015 1.37755,-1.86023 2.75863,-1.86023c1.17673,0 2.11213,0.41749 2.80619,1.25248c0.69406,0.83499 1.05166,1.88313 1.0728,3.14442v7.07097h-2.18788v-6.98642c0,-0.62712 -0.22901,-1.1644 -0.68702,-1.61184c-0.45801,-0.44744 -1.0041,-0.67116 -1.63827,-0.67116c-0.62712,0 -1.16969,0.21844 -1.6277,0.65531c-0.25367,0.26071 -0.41926,0.47915 -0.49676,0.65531z" data-paper-data="{&quot;glyphName&quot;:&quot;n&quot;,&quot;glyphIndex&quot;:7,&quot;word&quot;:2}"></path><path d="M313.26377,352.25194c0.36641,0.32413 1.03228,0.4862 1.99763,0.4862c1.04285,0 1.93421,-0.36641 2.67407,-1.09922c0.0916,-0.09865 0.27833,-0.31708 0.56018,-0.65531l2.18788,0.78214c-0.53552,0.73986 -0.92307,1.22958 -1.16264,1.46916c-1.17673,1.17673 -2.59657,1.7651 -4.25949,1.7651c-1.65588,0 -3.07219,-0.58837 -4.24893,-1.7651c-1.17673,-1.17673 -1.7651,-2.59657 -1.7651,-4.25949c0,-1.66293 0.58837,-3.08276 1.7651,-4.25949c1.17673,-1.17673 2.59304,-1.7651 4.24893,-1.7651c1.42335,0 2.67055,0.42982 3.74159,1.28947c0.17616,0.14797 0.34879,0.30651 0.5179,0.47563c0.07046,0.07046 0.27128,0.29242 0.60246,0.66588l-1.09922,1.10979zM316.9208,345.48748c-0.24662,-0.19025 -0.79976,-0.28538 -1.65941,-0.28538c-1.03581,0 -1.92188,0.36817 -2.65822,1.10451c-0.73634,0.73634 -1.10451,1.62594 -1.10451,2.66879c0,0.8526 0.09513,1.40574 0.28538,1.65941z" data-paper-data="{&quot;glyphName&quot;:&quot;e&quot;,&quot;glyphIndex&quot;:8,&quot;word&quot;:2}"></path><path d="M337.0843,350.9836l2.18788,0.78214c-0.53552,0.73986 -0.92307,1.22958 -1.16264,1.46916c-1.17673,1.17673 -2.59657,1.7651 -4.25949,1.7651c-1.65588,0 -3.07219,-0.58837 -4.24893,-1.7651c-1.17673,-1.17673 -1.7651,-2.59657 -1.7651,-4.25949c0,-1.66293 0.58837,-3.08276 1.7651,-4.25949c1.17673,-1.17673 2.59304,-1.7651 4.24893,-1.7651c1.66293,0 3.08276,0.58837 4.25949,1.7651c0.23957,0.23957 0.62712,0.72225 1.16264,1.44802l-2.18788,0.80328c-0.28185,-0.34527 -0.4721,-0.56723 -0.57075,-0.66588c-0.73282,-0.73282 -1.62065,-1.09922 -2.66351,-1.09922c-1.03581,0 -1.92188,0.36817 -2.65822,1.10451c-0.73634,0.73634 -1.10451,1.62594 -1.10451,2.66879c0,1.03581 0.36817,1.92188 1.10451,2.65822c0.73634,0.73634 1.62241,1.10451 2.65822,1.10451c1.04285,0 1.93421,-0.36641 2.67407,-1.09922c0.0916,-0.09865 0.27833,-0.31708 0.56018,-0.65531z" data-paper-data="{&quot;glyphName&quot;:&quot;c&quot;,&quot;glyphIndex&quot;:9,&quot;word&quot;:2}"></path><path d="M348.26931,343.83864v-4.07981h2.18788v4.07981h1.95535v2.18788h-1.95535v8.6881h-2.18788v-8.6881h-1.95535v-2.18788z" data-paper-data="{&quot;glyphName&quot;:&quot;t&quot;,&quot;glyphIndex&quot;:10,&quot;word&quot;:2}"></path><path d="M363.48173,352.25194c0.36641,0.32413 1.03228,0.4862 1.99763,0.4862c1.04285,0 1.93421,-0.36641 2.67407,-1.09922c0.0916,-0.09865 0.27833,-0.31708 0.56018,-0.65531l2.18788,0.78214c-0.53552,0.73986 -0.92307,1.22958 -1.16264,1.46916c-1.17673,1.17673 -2.59657,1.7651 -4.25949,1.7651c-1.65588,0 -3.07219,-0.58837 -4.24893,-1.7651c-1.17673,-1.17673 -1.7651,-2.59657 -1.7651,-4.25949c0,-1.66293 0.58837,-3.08276 1.7651,-4.25949c1.17673,-1.17673 2.59304,-1.7651 4.24893,-1.7651c1.42335,0 2.67055,0.42982 3.74159,1.28947c0.17616,0.14797 0.34879,0.30651 0.5179,0.47563c0.07046,0.07046 0.27128,0.29242 0.60246,0.66588l-1.09922,1.10979zM367.13876,345.48748c-0.24662,-0.19025 -0.79976,-0.28538 -1.65941,-0.28538c-1.03581,0 -1.92188,0.36817 -2.65822,1.10451c-0.73634,0.73634 -1.10451,1.62594 -1.10451,2.66879c0,0.8526 0.09513,1.40574 0.28538,1.65941z" data-paper-data="{&quot;glyphName&quot;:&quot;e&quot;,&quot;glyphIndex&quot;:11,&quot;word&quot;:2}"></path><path d="M388.15166,349.78925v-1.61713c-0.12683,-0.68349 -0.46858,-1.30357 -1.02524,-1.86023c-0.73282,-0.73986 -1.62065,-1.10979 -2.66351,-1.10979c-1.04285,0 -1.93245,0.36993 -2.66879,1.10979c-0.73634,0.73986 -1.10451,1.6277 -1.10451,2.66351c0,1.04285 0.36817,1.93069 1.10451,2.66351c0.73634,0.73282 1.62594,1.09922 2.66879,1.09922c1.04285,0 1.93069,-0.36641 2.66351,-1.09922c0.55666,-0.55666 0.8984,-1.17321 1.02524,-1.84966zM388.15166,344.58908v-6.7856h2.19845v16.91115h-2.19845v-1.35289c-1.05695,1.09218 -2.28653,1.63827 -3.68874,1.63827c-1.66293,0 -3.081,-0.58837 -4.25421,-1.7651c-1.17321,-1.17673 -1.75982,-2.59657 -1.75982,-4.25949c0,-1.66293 0.58661,-3.08276 1.75982,-4.25949c1.17321,-1.17673 2.59128,-1.7651 4.25421,-1.7651c1.40222,0 2.6318,0.54609 3.68874,1.63827z" data-paper-data="{&quot;glyphName&quot;:&quot;d&quot;,&quot;glyphIndex&quot;:12,&quot;lastGlyphOfWord&quot;:true,&quot;word&quot;:2}"></path></g><g data-paper-data="{&quot;isPrimaryText&quot;:true}" fill="#ff6900" fill-rule="nonzero"><path d="M140.34177,282.31592l-14.7336,18.8453v-18.70824h-9.6625v37.27943l9.6625,8.77163v-11.71835l4.5914,-5.89344l10.96454,17.61179h11.30718l-15.89858,-25.62961l12.95186,-16.72092z" data-paper-data="{&quot;glyphName&quot;:&quot;K&quot;,&quot;glyphIndex&quot;:0,&quot;firstGlyphOfWord&quot;:true,&quot;word&quot;:1}"></path><path d="M169.53485,282.86415l-13.02039,37.00531l7.05842,8.63457l3.83759,-10.1422h16.03564l3.83759,10.1422l7.05842,-8.63457l-13.08892,-37.00531zM175.42829,294.85661l4.93404,14.11684h-10.00514z" data-paper-data="{&quot;glyphName&quot;:&quot;A&quot;,&quot;glyphIndex&quot;:1,&quot;word&quot;:1}"></path><path d="M224.63166,282.17887v27.5484l-16.51533,-27.5484h-9.6625v37.62207l9.6625,8.7031v-27.5484l16.51533,27.5484l9.6625,-8.7031v-37.62207z" data-paper-data="{&quot;glyphName&quot;:&quot;N&quot;,&quot;glyphIndex&quot;:2,&quot;word&quot;:1}"></path><path d="M251.42624,282.86415l-13.02039,37.00531l7.05842,8.63457l3.83759,-10.1422h16.03564l3.83759,10.1422l7.05842,-8.63457l-13.08892,-37.00531zM257.31968,294.85661l4.93404,14.11684h-10.00514z" data-paper-data="{&quot;glyphName&quot;:&quot;A&quot;,&quot;glyphIndex&quot;:3,&quot;word&quot;:1}"></path><path d="M304.74131,282.31592l-14.7336,18.8453v-18.70824h-9.6625v37.27943l9.6625,8.77163v-11.71835l4.5914,-5.89344l10.96454,17.61179h11.30718l-15.89858,-25.62961l12.95186,-16.72092z" data-paper-data="{&quot;glyphName&quot;:&quot;K&quot;,&quot;glyphIndex&quot;:4,&quot;word&quot;:1}"></path><path d="M333.93439,328.50404c4.5914,0.54823 8.63457,-0.27411 12.12952,-2.46702c3.56347,-2.32996 5.61933,-5.34521 6.0305,-9.11427c0.4797,-3.76906 -0.68528,-7.19548 -3.56347,-10.27925c-2.80966,-3.1523 -6.44167,-5.00257 -10.89601,-5.61933c-0.13706,0 -0.41117,-0.06853 -0.89087,-0.13706c-1.78174,-0.41117 -3.28936,-1.02793 -4.52287,-1.98732c-1.09645,-1.02793 -1.64468,-2.05585 -1.50762,-3.1523c0.13706,-1.23351 0.9594,-2.12438 2.46702,-2.74113c1.57615,-0.68528 3.35789,-0.82234 5.27668,-0.54823c2.05585,0.27411 3.76906,0.89087 5.0711,1.91879l7.7437,-5.13963c-2.87819,-3.42642 -6.71578,-5.48227 -11.64982,-6.09902c-4.52287,-0.61676 -8.63457,0.20559 -12.19805,2.46702c-3.49495,2.19291 -5.48227,5.20816 -5.89344,8.97722c-0.4797,3.70053 0.68528,7.05842 3.42642,10.1422c2.80966,3.01525 6.44167,4.86551 10.89601,5.5508c0.27411,0 0.41117,0.06853 0.54823,0.13706c1.98732,0.27411 3.632,0.9594 4.86551,2.05585c1.30204,0.9594 1.85027,2.05585 1.71321,3.22083c-0.13706,1.16498 -0.9594,2.12438 -2.53555,2.80966c-1.50762,0.61676 -3.28936,0.82234 -5.34521,0.54823c-1.50762,-0.20559 -2.80966,-0.61676 -4.04317,-1.30204c-1.16498,-0.68528 -1.98732,-1.50762 -2.39849,-2.39849l-7.7437,5.0711c1.30204,2.12438 3.08378,3.90612 5.34521,5.41374c2.32996,1.37057 4.93404,2.26144 7.67518,2.67261z" data-paper-data="{&quot;glyphName&quot;:&quot;S&quot;,&quot;glyphIndex&quot;:5,&quot;word&quot;:1}"></path><path d="M369.29502,282.86415l-13.02039,37.00531l7.05842,8.63457l3.83759,-10.1422h16.03564l3.83759,10.1422l7.05842,-8.63457l-13.08892,-37.00531zM375.18846,294.85661l4.93404,14.11684h-10.00514z" data-paper-data="{&quot;glyphName&quot;:&quot;A&quot;,&quot;glyphIndex&quot;:6,&quot;word&quot;:1}"></path><path d="M424.39183,282.17887v27.5484l-16.51533,-27.5484h-9.6625v37.62207l9.6625,8.7031v-27.5484l16.51533,27.5484l9.6625,-8.7031v-37.62207z" data-paper-data="{&quot;glyphName&quot;:&quot;N&quot;,&quot;glyphIndex&quot;:7,&quot;lastGlyphOfWord&quot;:true,&quot;word&quot;:1}"></path></g><g data-paper-data="{&quot;fillRule&quot;:&quot;evenodd&quot;,&quot;isIcon&quot;:true,&quot;iconStyle&quot;:&quot;standalone&quot;,&quot;selectedEffects&quot;:{&quot;container&quot;:&quot;&quot;,&quot;transformation&quot;:&quot;&quot;,&quot;pattern&quot;:&quot;&quot;},&quot;bounds&quot;:{&quot;x&quot;:206.21946600160766,&quot;y&quot;:115.00000000000001,&quot;width&quot;:137.5610679967847,&quot;height&quot;:139.3090621224735},&quot;iconType&quot;:&quot;icon&quot;,&quot;rawIconId&quot;:&quot;21268&quot;}" fill="#ff6900" fill-rule="evenodd"><path d="M296.7277,115c-3.43533,0 -6.22221,2.78548 -6.22221,6.22221c0,2.94054 2.0454,5.38769 4.78718,6.03755l0.41584,11.63669c-2.30761,0.5695 -4.27266,1.99466 -5.53853,3.9273l-22.00187,-13.30572c0.10291,-0.41726 0.17338,-0.84861 0.17338,-1.29688c0,-3.0082 -2.43729,-5.44409 -5.44409,-5.44409c-3.00538,0 -5.44409,2.43588 -5.44409,5.44409c0,3.0082 2.43729,5.44409 5.44409,5.44409c1.13477,0 2.18779,-0.3496 3.05895,-0.94306l22.81242,13.7991c-0.06766,0.44968 -0.11277,0.90781 -0.11277,1.37582c0,1.3575 0.29885,2.6431 0.82183,3.80466l-34.65774,34.57598c-1.59996,-1.30816 -3.64255,-2.09475 -5.87121,-2.09475c-1.89317,0 -3.651,0.5695 -5.11845,1.54216l-16.44643,-16.44643c0.86835,-1.23345 1.38851,-2.7305 1.38851,-4.35301c0,-4.18808 -3.39445,-7.58253 -7.58253,-7.58253c-4.18808,0 -7.58253,3.39445 -7.58253,7.58253c0,4.18808 3.39585,7.58253 7.58253,7.58253c1.14605,0 2.22302,-0.27347 3.19709,-0.7302l16.72554,16.72695c-0.91064,1.43644 -1.44489,3.13366 -1.44489,4.95917c0,0.7006 0.08458,1.38005 0.23118,2.03554l-23.7005,7.96454c-0.97548,-1.46886 -2.64028,-2.43729 -4.53486,-2.43729c-3.00679,0 -5.44409,2.43729 -5.44409,5.44409c0,3.00679 2.43729,5.44126 5.44409,5.44126c2.72627,0 4.96339,-2.00876 5.36091,-4.62367l24.52515,-8.24083c1.40683,1.86074 3.49453,3.17031 5.89658,3.56219l-0.00423,13.93443c-2.78125,0.61884 -4.86331,3.09419 -4.86331,6.06292c0,3.43673 2.78548,6.2208 6.22221,6.2208c3.43673,0 6.22221,-2.78548 6.22221,-6.2208c0,-2.53456 -1.5196,-4.70543 -3.69329,-5.67386l0.00564,-14.51098c2.67552,-0.71188 4.87036,-2.58248 6.02063,-5.04656l31.36761,6.31666c-0.04652,0.32986 -0.10149,0.65549 -0.10149,0.99662c0,3.98932 3.23515,7.22448 7.22448,7.22448c0.52721,0 1.0375,-0.06343 1.53229,-0.17057l5.12973,12.67279c-1.48014,1.17847 -2.44857,2.97014 -2.44857,5.01132c0,1.04315 0.27206,2.0158 0.7161,2.88556l-10.41029,10.91495c-0.04652,-0.01833 -0.0874,-0.04793 -0.13674,-0.06484c-2.82776,-1.01918 -5.94733,0.45109 -6.96369,3.27885c-1.01636,2.82776 0.45109,5.94592 3.27885,6.96369c2.83059,1.01777 5.94733,-0.4525 6.9651,-3.28026c0.52439,-1.45899 0.37779,-2.98988 -0.26642,-4.2783l10.26369,-10.76552c0.89231,0.46942 1.89175,0.75839 2.96732,0.75839c1.68454,0 3.20414,-0.66254 4.35019,-1.72542l19.30238,12.97586c-0.19453,0.55823 -0.3214,1.14887 -0.3214,1.77758c0,3.00679 2.43729,5.44126 5.44126,5.44126c3.00679,0 5.44409,-2.43729 5.44409,-5.44126c0,-3.0082 -2.43729,-5.44409 -5.44409,-5.44409c-0.94165,0 -1.81704,0.26219 -2.59095,0.68509l-19.90289,-13.37902c0.0874,-0.42149 0.13674,-0.85707 0.13674,-1.30534c0,-3.54528 -2.87287,-6.41674 -6.41674,-6.41674c-0.11277,0 -0.21568,0.02678 -0.32563,0.03101l-5.29184,-13.16194c1.36172,-1.3138 2.21457,-3.14916 2.21457,-5.19035c0,-3.98932 -3.23515,-7.22448 -7.22448,-7.22448c-2.24699,0 -4.23037,1.04737 -5.55404,2.65861l-32.06821,-6.55771c0,-0.03383 0.00423,-0.06626 0.00423,-0.10009c0,-1.48859 -0.35805,-2.88979 -0.98112,-4.13593l34.53792,-34.49704c1.63802,1.45336 3.78915,2.34426 6.15032,2.34426c1.90867,0 3.67919,-0.57796 5.1537,-1.56472l17.90683,17.90683c-0.34678,0.77531 -0.55118,1.62956 -0.55118,2.53315c0,3.43815 2.78688,6.22221 6.22221,6.22221c3.43533,0 6.2208,-2.78406 6.2208,-6.22221c0,-3.43673 -2.78548,-6.22221 -6.2208,-6.22221c-1.10939,0 -2.13704,0.31435 -3.03639,0.82324l-17.83352,-17.83494c0.89513,-1.42798 1.42093,-3.11111 1.42093,-4.91969c0,-0.14519 -0.01551,-0.28475 -0.02255,-0.42854l26.39576,-5.35246c0.92755,1.6789 2.69385,2.82776 4.74631,2.82776c3.00679,0 5.44409,-2.43729 5.44409,-5.44409c0,-3.00679 -2.43729,-5.44409 -5.44409,-5.44409c-2.57685,0 -4.72657,1.79731 -5.28902,4.20359l-26.8398,5.44409c-1.29266,-2.54442 -3.71867,-4.40799 -6.61551,-4.93097l-0.42289,-11.8284c2.22162,-0.94869 3.7821,-3.15058 3.7821,-5.72178c-0.00141,-3.43533 -2.78688,-6.2208 -6.22362,-6.2208z" data-paper-data="{&quot;isPathIcon&quot;:true}" opacity="0.65"></path></g></g></g></svg>
